<?xml version="1.0" standalone="no"?>
<!DOCTYPE svg PUBLIC "-//W3C//DTD SVG 20010904//EN"
 "http://www.w3.org/TR/2001/REC-SVG-20010904/DTD/svg10.dtd">
<svg version="1.0" xmlns="http://www.w3.org/2000/svg"
 width="561.000000pt" height="445.000000pt" viewBox="0 0 561.000000 445.000000"
 preserveAspectRatio="xMidYMid meet">

<g transform="translate(0.000000,445.000000) scale(0.100000,-0.100000)"
fill="#000000" stroke="none">
<path d="M2710 3661 c-91 -28 -183 -112 -216 -196 -17 -45 -19 -78 -19 -310
l0 -260 55 0 55 0 5 265 c3 175 9 272 17 285 20 35 77 83 115 99 77 33 164 14
223 -48 49 -51 65 -99 65 -201 l0 -77 38 6 c79 15 75 7 70 115 -3 81 -8 106
-31 153 -54 110 -167 179 -290 177 -34 0 -73 -4 -87 -8z"/>
<path d="M3010 2588 c0 -134 -5 -249 -11 -271 -13 -47 -67 -109 -116 -132 -56
-27 -151 -17 -205 20 -65 47 -88 100 -88 207 0 48 -3 88 -7 88 -5 -1 -30 -7
-58 -14 l-50 -14 2 -87 c2 -67 8 -98 27 -140 31 -68 94 -130 163 -162 72 -33
188 -35 256 -5 61 27 133 95 165 157 27 50 27 50 30 318 l3 267 -55 0 -56 0 0
-232z"/>
<path d="M1035 1806 c-43 -19 -66 -49 -72 -93 -8 -57 28 -95 109 -117 102 -28
118 -36 118 -61 0 -13 -7 -26 -16 -29 -31 -12 -110 -5 -150 13 l-41 19 -16
-34 c-16 -33 -16 -34 8 -50 13 -8 53 -21 90 -27 123 -21 215 27 215 112 0 22
-3 47 -6 56 -9 22 -67 50 -136 65 -32 7 -65 21 -74 32 -16 17 -16 19 1 38 22
24 75 26 134 5 38 -13 41 -13 51 5 20 37 12 56 -29 68 -51 16 -149 14 -186 -2z"/>
<path d="M1306 1808 c4 -7 38 -63 76 -124 68 -110 68 -111 68 -182 l0 -72 50
0 49 0 -2 68 c-2 67 -2 67 71 186 39 65 72 123 72 128 0 5 -19 8 -42 6 -41 -3
-44 -6 -88 -77 -26 -41 -51 -76 -56 -78 -5 -2 -32 33 -58 77 l-49 80 -49 0
c-36 0 -47 -3 -42 -12z"/>
<path d="M1790 1804 c-48 -20 -70 -51 -70 -100 0 -50 30 -85 87 -102 21 -6 58
-17 82 -24 52 -15 71 -39 52 -62 -19 -23 -116 -21 -164 3 l-37 19 -16 -30
c-20 -38 -8 -53 59 -73 133 -40 257 10 257 103 0 70 -27 90 -178 131 -52 15
-64 37 -33 63 28 22 79 23 128 3 19 -8 37 -15 38 -15 3 0 25 59 25 67 0 2 -16
11 -35 19 -44 18 -150 17 -195 -2z"/>
<path d="M2120 1626 c0 -189 1 -196 20 -196 18 0 20 7 20 65 l0 65 78 0 c106
0 161 27 180 88 12 35 12 49 0 84 -20 65 -58 82 -190 87 l-108 3 0 -196z m234
125 c18 -17 26 -35 26 -58 0 -71 -36 -93 -151 -93 l-69 0 0 91 0 91 84 -3 c73
-4 88 -7 110 -28z"/>
<path d="M2510 1626 l0 -196 26 0 25 0 -2 88 -2 87 116 3 117 3 0 -91 c0 -83
1 -90 20 -90 19 0 20 7 20 195 0 188 -1 195 -20 195 -18 0 -20 -7 -20 -85 l0
-86 -116 3 -116 3 -2 80 c-1 75 -2 80 -23 83 l-23 3 0 -195z"/>
<path d="M2991 1640 c-104 -230 -98 -210 -70 -210 19 0 29 11 46 50 l22 50
109 0 108 0 23 -50 c18 -40 28 -50 47 -50 29 0 33 -13 -74 215 -110 232 -104
232 -211 -5z m155 25 l43 -95 -90 0 c-49 0 -89 3 -89 6 0 13 84 193 88 189 3
-2 24 -47 48 -100z"/>
<path d="M3367 1813 c-4 -3 -7 -91 -7 -195 l0 -188 25 0 c24 0 25 2 25 65 l0
65 69 0 68 0 42 -65 c33 -51 48 -65 67 -65 28 0 29 -3 -27 81 l-37 55 33 27
c83 66 60 181 -44 216 -36 12 -203 15 -214 4z m240 -67 c12 -15 23 -40 23 -56
0 -16 -11 -41 -23 -56 -22 -25 -31 -28 -110 -32 l-87 -5 0 93 0 93 87 -5 c79
-4 88 -7 110 -32z"/>
<path d="M3770 1625 c0 -187 1 -195 20 -195 18 0 20 8 22 147 l3 147 68 -113
c37 -62 67 -117 67 -123 0 -5 8 -8 17 -6 9 2 45 55 82 120 36 64 69 117 74
118 4 0 7 -65 7 -145 0 -138 1 -145 20 -145 19 0 20 7 20 195 0 185 -1 195
-19 195 -14 0 -40 -36 -97 -135 -43 -74 -81 -135 -84 -135 -4 0 -42 61 -85
135 -111 192 -115 190 -115 -60z"/>
<path d="M4327 1632 c-48 -103 -87 -190 -87 -195 0 -4 9 -7 20 -7 14 0 27 15
45 50 l25 50 109 0 109 0 21 -50 c18 -41 26 -50 46 -50 14 0 25 2 25 4 0 1
-24 54 -54 117 -29 63 -70 149 -90 192 -30 64 -40 77 -59 77 -21 0 -34 -22
-110 -188z m115 -60 c-46 -2 -87 0 -90 2 -3 3 15 49 39 103 l44 97 46 -100 46
-99 -85 -3z"/>
</g>
</svg>
